<?xml version="1.0" encoding="UTF-8"?>
<svg width="113px" height="112px" viewBox="0 0 113 112" version="1.1" xmlns="http://www.w3.org/2000/svg" xmlns:xlink="http://www.w3.org/1999/xlink">
    <!-- Generator: Sketch 63.1 (92452) - https://sketch.com -->
    <title>Forest Day</title>
    <desc>Created with Sketch.</desc>
    <defs>
        <filter x="-13.9%" y="-13.7%" width="127.7%" height="127.5%" filterUnits="objectBoundingBox" id="filter-1">
            <feOffset dx="0" dy="2" in="SourceAlpha" result="shadowOffsetOuter1"></feOffset>
            <feGaussianBlur stdDeviation="2" in="shadowOffsetOuter1" result="shadowBlurOuter1"></feGaussianBlur>
            <feColorMatrix values="0 0 0 0 0.704908288   0 0 0 0 0.667339148   0 0 0 0 0.667339148  0 0 0 0.5 0" type="matrix" in="shadowBlurOuter1" result="shadowMatrixOuter1"></feColorMatrix>
            <feMerge>
                <feMergeNode in="shadowMatrixOuter1"></feMergeNode>
                <feMergeNode in="SourceGraphic"></feMergeNode>
            </feMerge>
        </filter>
    </defs>
    <g id="Page-1" stroke="none" stroke-width="1" fill="none" fill-rule="evenodd">
        <g id="Artboard" transform="translate(-224.000000, -64.000000)">
            <g id="Forest-Day" filter="url(#filter-1)" transform="translate(230.000000, 68.000000)">
                <g id="Group-3" transform="translate(30.000000, 63.000000) rotate(-16.000000) translate(-30.000000, -63.000000) translate(12.000000, 51.000000)">
                    <path d="M0,0.0012701747 C1.91504084,7.9218434 5.81826818,13.8458307 11.709682,17.773232 C17.6010958,21.7006334 25.6978685,23.7762227 36,24 C31.9878902,14.7815841 27.4185907,8.46363695 22.2921016,5.04615842 C17.1656125,1.62867989 9.73491196,-0.052949522 0,0.0012701747 Z" id="Path-3" stroke="#48A975" fill="#48A975"></path>
                    <path d="M18,12 C21.5392263,15.25673 24.4036586,17.6093844 26.593297,19.0579633 C28.7829353,20.5065422 31.918503,22.1538878 36,24" id="Line" stroke="#7CC68B" stroke-linecap="square"></path>
                </g>
                <path d="M41,95.2287173 C41.4885839,85.6351782 39.1257245,85.7108315 48.9821996,72.7827581 C50.0870945,71.333542 51.3780598,68.9477303 52.8550954,65.625323 L52.8550954,62.338489 L52.8550954,56.5645216 C53.2168603,52.4507311 54.0117086,49.5424848 55.2396401,47.8397829 C56.4675717,46.137081 57.9696785,43.7437317 59.7459605,40.6597351 C59.7459605,40.4544326 59.7459605,40.2345209 59.7459605,40" id="Path-4" stroke="#48A975" stroke-width="1.1"></path>
                <g id="Group" transform="translate(71.500000, 53.500000) rotate(135.000000) translate(-71.500000, -53.500000) translate(56.000000, 43.000000)">
                    <path d="M0.863961031,0.743699166 C2.4598284,7.34417685 5.71251785,12.2808329 10.6220294,15.5536674 C15.5315409,18.8265019 22.2788515,20.5561596 30.863961,20.7426407 C27.5205362,13.0606275 23.7127866,7.79567148 19.4407124,4.9477727 C15.1686381,2.09987393 8.97638766,0.698516085 0.863961031,0.743699166 Z" id="Path-3-Copy" stroke="#48A975" fill="#48A975"></path>
                    <path d="M15.7885822,10.3388348 C19.4907656,12.3572459 22.1974117,13.9223277 23.9085203,15.03408 C25.619629,16.1458324 27.912983,17.914084 30.7885822,20.3388348" id="Line-Copy-2" stroke="#7CC68B" stroke-linecap="square"></path>
                </g>
                <g id="Group-Copy" transform="translate(36.500000, 39.000000) rotate(-8.000000) translate(-36.500000, -39.000000) translate(19.000000, 27.000000)">
                    <path d="M0.0722995156,0.765070582 C1.8809492,8.35561992 5.56733057,14.0327744 11.1314436,17.796534 C16.6955567,21.5602937 24.3425087,23.5494001 34.0722995,23.7638533 C30.2830847,14.9295381 25.9676352,8.87483874 21.125951,5.59975515 C16.2842669,2.32467156 9.26638303,0.713110039 0.0722995156,0.765070582 Z" id="Path-3-Copy" stroke="#48A975" fill="#48A975"></path>
                    <path d="M16.4328857,11.907897 C20.6286935,14.1281492 23.6962257,15.8497391 25.6354822,17.0726668 C27.5747387,18.2955944 30.1738732,20.2406711 33.4328857,22.907897" id="Line-Copy-2" stroke="#7CC68B" stroke-linecap="square"></path>
                </g>
                <g id="Group-Copy" transform="translate(61.000000, 24.500000) rotate(62.000000) translate(-61.000000, -24.500000) translate(47.000000, 15.000000)">
                    <path d="M0.736643039,0.0909832366 C2.17292367,6.03141315 5.10034417,10.4744036 9.51890455,13.4199546 C13.9374649,16.3655057 20.0100444,17.9221976 27.736643,18.0900306 C24.7275607,11.1762187 21.3005861,6.43775831 17.4557192,3.87464942 C13.6108524,1.31154053 8.03782701,0.0503184641 0.736643039,0.0909832366 Z" id="Path-3-Copy" stroke="#48A975" fill="#48A975"></path>
                    <path d="M13.6240142,8.55254112 C17.0793854,10.3691111 19.6055883,11.7776847 21.2026231,12.7782619 C22.7996579,13.778839 24.7644341,15.4807719 27.0969518,17.8840604" id="Line-Copy-2" stroke="#7CC68B" stroke-linecap="square"></path>
                </g>
                <g id="Group-2" transform="translate(62.500000, 79.500000) rotate(-52.000000) translate(-62.500000, -79.500000) translate(44.000000, 67.000000)">
                    <path d="M0.547507231,0.878713996 C2.46254807,8.79928722 6.36577541,14.7232745 12.2571892,18.6506759 C18.1486031,22.5780772 26.2453757,24.6536665 36.5475072,24.8774438 C32.5353974,15.659028 27.9660979,9.34108077 22.8396088,5.92360224 C17.7131197,2.50612371 10.2824192,0.8244943 0.547507231,0.878713996 Z" id="Path-3-Copy-2" stroke="#48A975" fill="#48A975"></path>
                    <path d="M18.856165,12.2949055 C21.5945722,15.0840383 24.1085261,17.2259137 26.3980267,18.7205314 C28.6875273,20.2151492 32.1735734,22.0732739 36.856165,24.2949055" id="Line-Copy" stroke="#7CC68B" stroke-linecap="square"></path>
                </g>
                <circle id="Oval-Copy" stroke="#979797" stroke-width="4" cx="50.6859703" cy="50" r="50"></circle>
            </g>
        </g>
    </g>
</svg>